<svg width="158" height="183" viewBox="0 0 158 183" fill="none" xmlns="http://www.w3.org/2000/svg">
<path fill-rule="evenodd" clip-rule="evenodd" d="M150 54C150 56.2091 151.791 58 154 58C156.209 58 158 56.2091 158 54C158 51.7909 156.209 50 154 50C151.791 50 150 51.7909 150 54Z" fill="#228BDA"/>
<path fill-rule="evenodd" clip-rule="evenodd" d="M150 154C150 156.209 151.791 158 154 158C156.209 158 158 156.209 158 154C158 151.791 156.209 150 154 150C151.791 150 150 151.791 150 154Z" fill="#228BDA"/>
<path fill-rule="evenodd" clip-rule="evenodd" d="M150 29C150 31.2091 151.791 33 154 33C156.209 33 158 31.2091 158 29C158 26.7909 156.209 25 154 25C151.791 25 150 26.7909 150 29Z" fill="#228BDA"/>
<path fill-rule="evenodd" clip-rule="evenodd" d="M150 129C150 131.209 151.791 133 154 133C156.209 133 158 131.209 158 129C158 126.791 156.209 125 154 125C151.791 125 150 126.791 150 129Z" fill="#228BDA"/>
<path fill-rule="evenodd" clip-rule="evenodd" d="M150 4C150 6.20914 151.791 8 154 8C156.209 8 158 6.20914 158 4C158 1.79086 156.209 0 154 0C151.791 0 150 1.79086 150 4Z" fill="#228BDA"/>
<path fill-rule="evenodd" clip-rule="evenodd" d="M150 104C150 106.209 151.791 108 154 108C156.209 108 158 106.209 158 104C158 101.791 156.209 100 154 100C151.791 100 150 101.791 150 104Z" fill="#228BDA"/>
<path fill-rule="evenodd" clip-rule="evenodd" d="M150 79C150 81.2091 151.791 83 154 83C156.209 83 158 81.2091 158 79C158 76.7909 156.209 75 154 75C151.791 75 150 76.7909 150 79Z" fill="#228BDA"/>
<path fill-rule="evenodd" clip-rule="evenodd" d="M150 179C150 181.209 151.791 183 154 183C156.209 183 158 181.209 158 179C158 176.791 156.209 175 154 175C151.791 175 150 176.791 150 179Z" fill="#228BDA"/>
<path fill-rule="evenodd" clip-rule="evenodd" d="M90 54C90 56.2091 91.7909 58 94 58C96.2091 58 98 56.2091 98 54C98 51.7909 96.2091 50 94 50C91.7909 50 90 51.7909 90 54Z" fill="#228BDA"/>
<path fill-rule="evenodd" clip-rule="evenodd" d="M90 154C90 156.209 91.7909 158 94 158C96.2091 158 98 156.209 98 154C98 151.791 96.2091 150 94 150C91.7909 150 90 151.791 90 154Z" fill="#228BDA"/>
<path fill-rule="evenodd" clip-rule="evenodd" d="M90 29C90 31.2091 91.7909 33 94 33C96.2091 33 98 31.2091 98 29C98 26.7909 96.2091 25 94 25C91.7909 25 90 26.7909 90 29Z" fill="#228BDA"/>
<path fill-rule="evenodd" clip-rule="evenodd" d="M90 129C90 131.209 91.7909 133 94 133C96.2091 133 98 131.209 98 129C98 126.791 96.2091 125 94 125C91.7909 125 90 126.791 90 129Z" fill="#228BDA"/>
<path fill-rule="evenodd" clip-rule="evenodd" d="M90 4C90 6.20914 91.7909 8 94 8C96.2091 8 98 6.20914 98 4C98 1.79086 96.2091 0 94 0C91.7909 0 90 1.79086 90 4Z" fill="#228BDA"/>
<path fill-rule="evenodd" clip-rule="evenodd" d="M90 104C90 106.209 91.7909 108 94 108C96.2091 108 98 106.209 98 104C98 101.791 96.2091 100 94 100C91.7909 100 90 101.791 90 104Z" fill="#228BDA"/>
<path fill-rule="evenodd" clip-rule="evenodd" d="M90 79C90 81.2091 91.7909 83 94 83C96.2091 83 98 81.2091 98 79C98 76.7909 96.2091 75 94 75C91.7909 75 90 76.7909 90 79Z" fill="#228BDA"/>
<path fill-rule="evenodd" clip-rule="evenodd" d="M90 179C90 181.209 91.7909 183 94 183C96.2091 183 98 181.209 98 179C98 176.791 96.2091 175 94 175C91.7909 175 90 176.791 90 179Z" fill="#228BDA"/>
<path fill-rule="evenodd" clip-rule="evenodd" d="M30 54C30 56.2091 31.7909 58 34 58C36.2091 58 38 56.2091 38 54C38 51.7909 36.2091 50 34 50C31.7909 50 30 51.7909 30 54Z" fill="#228BDA"/>
<path fill-rule="evenodd" clip-rule="evenodd" d="M30 154C30 156.209 31.7909 158 34 158C36.2091 158 38 156.209 38 154C38 151.791 36.2091 150 34 150C31.7909 150 30 151.791 30 154Z" fill="#228BDA"/>
<path fill-rule="evenodd" clip-rule="evenodd" d="M30 29C30 31.2091 31.7909 33 34 33C36.2091 33 38 31.2091 38 29C38 26.7909 36.2091 25 34 25C31.7909 25 30 26.7909 30 29Z" fill="#228BDA"/>
<path fill-rule="evenodd" clip-rule="evenodd" d="M30 129C30 131.209 31.7909 133 34 133C36.2091 133 38 131.209 38 129C38 126.791 36.2091 125 34 125C31.7909 125 30 126.791 30 129Z" fill="#228BDA"/>
<path fill-rule="evenodd" clip-rule="evenodd" d="M30 4C30 6.20914 31.7909 8 34 8C36.2091 8 38 6.20914 38 4C38 1.79086 36.2091 0 34 0C31.7909 0 30 1.79086 30 4Z" fill="#228BDA"/>
<path fill-rule="evenodd" clip-rule="evenodd" d="M30 104C30 106.209 31.7909 108 34 108C36.2091 108 38 106.209 38 104C38 101.791 36.2091 100 34 100C31.7909 100 30 101.791 30 104Z" fill="#228BDA"/>
<path fill-rule="evenodd" clip-rule="evenodd" d="M30 79C30 81.2091 31.7909 83 34 83C36.2091 83 38 81.2091 38 79C38 76.7909 36.2091 75 34 75C31.7909 75 30 76.7909 30 79Z" fill="#228BDA"/>
<path fill-rule="evenodd" clip-rule="evenodd" d="M30 179C30 181.209 31.7909 183 34 183C36.2091 183 38 181.209 38 179C38 176.791 36.2091 175 34 175C31.7909 175 30 176.791 30 179Z" fill="#228BDA"/>
<path fill-rule="evenodd" clip-rule="evenodd" d="M120 54C120 56.2091 121.791 58 124 58C126.209 58 128 56.2091 128 54C128 51.7909 126.209 50 124 50C121.791 50 120 51.7909 120 54Z" fill="#228BDA"/>
<path fill-rule="evenodd" clip-rule="evenodd" d="M120 154C120 156.209 121.791 158 124 158C126.209 158 128 156.209 128 154C128 151.791 126.209 150 124 150C121.791 150 120 151.791 120 154Z" fill="#228BDA"/>
<path fill-rule="evenodd" clip-rule="evenodd" d="M120 29C120 31.2091 121.791 33 124 33C126.209 33 128 31.2091 128 29C128 26.7909 126.209 25 124 25C121.791 25 120 26.7909 120 29Z" fill="#228BDA"/>
<path fill-rule="evenodd" clip-rule="evenodd" d="M120 129C120 131.209 121.791 133 124 133C126.209 133 128 131.209 128 129C128 126.791 126.209 125 124 125C121.791 125 120 126.791 120 129Z" fill="#228BDA"/>
<path fill-rule="evenodd" clip-rule="evenodd" d="M120 4C120 6.20914 121.791 8 124 8C126.209 8 128 6.20914 128 4C128 1.79086 126.209 0 124 0C121.791 0 120 1.79086 120 4Z" fill="#228BDA"/>
<path fill-rule="evenodd" clip-rule="evenodd" d="M120 104C120 106.209 121.791 108 124 108C126.209 108 128 106.209 128 104C128 101.791 126.209 100 124 100C121.791 100 120 101.791 120 104Z" fill="#228BDA"/>
<path fill-rule="evenodd" clip-rule="evenodd" d="M120 79C120 81.2091 121.791 83 124 83C126.209 83 128 81.2091 128 79C128 76.7909 126.209 75 124 75C121.791 75 120 76.7909 120 79Z" fill="#228BDA"/>
<path fill-rule="evenodd" clip-rule="evenodd" d="M120 179C120 181.209 121.791 183 124 183C126.209 183 128 181.209 128 179C128 176.791 126.209 175 124 175C121.791 175 120 176.791 120 179Z" fill="#228BDA"/>
<path fill-rule="evenodd" clip-rule="evenodd" d="M60 54C60 56.2091 61.7909 58 64 58C66.2091 58 68 56.2091 68 54C68 51.7909 66.2091 50 64 50C61.7909 50 60 51.7909 60 54Z" fill="#228BDA"/>
<path fill-rule="evenodd" clip-rule="evenodd" d="M60 154C60 156.209 61.7909 158 64 158C66.2091 158 68 156.209 68 154C68 151.791 66.2091 150 64 150C61.7909 150 60 151.791 60 154Z" fill="#228BDA"/>
<path fill-rule="evenodd" clip-rule="evenodd" d="M60 29C60 31.2091 61.7909 33 64 33C66.2091 33 68 31.2091 68 29C68 26.7909 66.2091 25 64 25C61.7909 25 60 26.7909 60 29Z" fill="#228BDA"/>
<path fill-rule="evenodd" clip-rule="evenodd" d="M60 129C60 131.209 61.7909 133 64 133C66.2091 133 68 131.209 68 129C68 126.791 66.2091 125 64 125C61.7909 125 60 126.791 60 129Z" fill="#228BDA"/>
<path fill-rule="evenodd" clip-rule="evenodd" d="M60 4C60 6.20914 61.7909 8 64 8C66.2091 8 68 6.20914 68 4C68 1.79086 66.2091 0 64 0C61.7909 0 60 1.79086 60 4Z" fill="#228BDA"/>
<path fill-rule="evenodd" clip-rule="evenodd" d="M60 104C60 106.209 61.7909 108 64 108C66.2091 108 68 106.209 68 104C68 101.791 66.2091 100 64 100C61.7909 100 60 101.791 60 104Z" fill="#228BDA"/>
<path fill-rule="evenodd" clip-rule="evenodd" d="M60 79C60 81.2091 61.7909 83 64 83C66.2091 83 68 81.2091 68 79C68 76.7909 66.2091 75 64 75C61.7909 75 60 76.7909 60 79Z" fill="#228BDA"/>
<path fill-rule="evenodd" clip-rule="evenodd" d="M60 179C60 181.209 61.7909 183 64 183C66.2091 183 68 181.209 68 179C68 176.791 66.2091 175 64 175C61.7909 175 60 176.791 60 179Z" fill="#228BDA"/>
<path fill-rule="evenodd" clip-rule="evenodd" d="M0 54C0 56.2091 1.79086 58 4 58C6.20914 58 8 56.2091 8 54C8 51.7909 6.20914 50 4 50C1.79086 50 0 51.7909 0 54Z" fill="#228BDA"/>
<path fill-rule="evenodd" clip-rule="evenodd" d="M0 154C0 156.209 1.79086 158 4 158C6.20914 158 8 156.209 8 154C8 151.791 6.20914 150 4 150C1.79086 150 0 151.791 0 154Z" fill="#228BDA"/>
<path fill-rule="evenodd" clip-rule="evenodd" d="M0 29C0 31.2091 1.79086 33 4 33C6.20914 33 8 31.2091 8 29C8 26.7909 6.20914 25 4 25C1.79086 25 0 26.7909 0 29Z" fill="#228BDA"/>
<path fill-rule="evenodd" clip-rule="evenodd" d="M0 129C0 131.209 1.79086 133 4 133C6.20914 133 8 131.209 8 129C8 126.791 6.20914 125 4 125C1.79086 125 0 126.791 0 129Z" fill="#228BDA"/>
<path fill-rule="evenodd" clip-rule="evenodd" d="M0 4C0 6.20914 1.79086 8 4 8C6.20914 8 8 6.20914 8 4C8 1.79086 6.20914 0 4 0C1.79086 0 0 1.79086 0 4Z" fill="#228BDA"/>
<path fill-rule="evenodd" clip-rule="evenodd" d="M0 104C0 106.209 1.79086 108 4 108C6.20914 108 8 106.209 8 104C8 101.791 6.20914 100 4 100C1.79086 100 0 101.791 0 104Z" fill="#228BDA"/>
<path fill-rule="evenodd" clip-rule="evenodd" d="M0 79C0 81.2091 1.79086 83 4 83C6.20914 83 8 81.2091 8 79C8 76.7909 6.20914 75 4 75C1.79086 75 0 76.7909 0 79Z" fill="#228BDA"/>
<path fill-rule="evenodd" clip-rule="evenodd" d="M0 179C0 181.209 1.79086 183 4 183C6.20914 183 8 181.209 8 179C8 176.791 6.20914 175 4 175C1.79086 175 0 176.791 0 179Z" fill="#228BDA"/>
</svg>
