<svg width="309" height="184" viewBox="0 0 309 184" fill="none" xmlns="http://www.w3.org/2000/svg">
<path fill-rule="evenodd" clip-rule="evenodd" d="M300.5 54.5C300.5 56.7091 302.291 58.5 304.5 58.5C306.709 58.5 308.5 56.7091 308.5 54.5C308.5 52.2909 306.709 50.5 304.5 50.5C302.291 50.5 300.5 52.2909 300.5 54.5Z" fill="#228BDA"/>
<path fill-rule="evenodd" clip-rule="evenodd" d="M300.5 154.5C300.5 156.709 302.291 158.5 304.5 158.5C306.709 158.5 308.5 156.709 308.5 154.5C308.5 152.291 306.709 150.5 304.5 150.5C302.291 150.5 300.5 152.291 300.5 154.5Z" fill="#228BDA"/>
<path fill-rule="evenodd" clip-rule="evenodd" d="M300.5 29.5C300.5 31.7091 302.291 33.5 304.5 33.5C306.709 33.5 308.5 31.7091 308.5 29.5C308.5 27.2909 306.709 25.5 304.5 25.5C302.291 25.5 300.5 27.2909 300.5 29.5Z" fill="#228BDA"/>
<path fill-rule="evenodd" clip-rule="evenodd" d="M300.5 129.5C300.5 131.709 302.291 133.5 304.5 133.5C306.709 133.5 308.5 131.709 308.5 129.5C308.5 127.291 306.709 125.5 304.5 125.5C302.291 125.5 300.5 127.291 300.5 129.5Z" fill="#228BDA"/>
<path fill-rule="evenodd" clip-rule="evenodd" d="M300.5 4.5C300.5 6.70914 302.291 8.5 304.5 8.5C306.709 8.5 308.5 6.70914 308.5 4.5C308.5 2.29086 306.709 0.5 304.5 0.5C302.291 0.5 300.5 2.29086 300.5 4.5Z" fill="#228BDA"/>
<path fill-rule="evenodd" clip-rule="evenodd" d="M300.5 104.5C300.5 106.709 302.291 108.5 304.5 108.5C306.709 108.5 308.5 106.709 308.5 104.5C308.5 102.291 306.709 100.5 304.5 100.5C302.291 100.5 300.5 102.291 300.5 104.5Z" fill="#228BDA"/>
<path fill-rule="evenodd" clip-rule="evenodd" d="M300.5 79.5C300.5 81.7091 302.291 83.5 304.5 83.5C306.709 83.5 308.5 81.7091 308.5 79.5C308.5 77.2909 306.709 75.5 304.5 75.5C302.291 75.5 300.5 77.2909 300.5 79.5Z" fill="#228BDA"/>
<path fill-rule="evenodd" clip-rule="evenodd" d="M300.5 179.5C300.5 181.709 302.291 183.5 304.5 183.5C306.709 183.5 308.5 181.709 308.5 179.5C308.5 177.291 306.709 175.5 304.5 175.5C302.291 175.5 300.5 177.291 300.5 179.5Z" fill="#228BDA"/>
<path fill-rule="evenodd" clip-rule="evenodd" d="M240.5 54.5C240.5 56.7091 242.291 58.5 244.5 58.5C246.709 58.5 248.5 56.7091 248.5 54.5C248.5 52.2909 246.709 50.5 244.5 50.5C242.291 50.5 240.5 52.2909 240.5 54.5Z" fill="#228BDA"/>
<path fill-rule="evenodd" clip-rule="evenodd" d="M240.5 154.5C240.5 156.709 242.291 158.5 244.5 158.5C246.709 158.5 248.5 156.709 248.5 154.5C248.5 152.291 246.709 150.5 244.5 150.5C242.291 150.5 240.5 152.291 240.5 154.5Z" fill="#228BDA"/>
<path fill-rule="evenodd" clip-rule="evenodd" d="M240.5 29.5C240.5 31.7091 242.291 33.5 244.5 33.5C246.709 33.5 248.5 31.7091 248.5 29.5C248.5 27.2909 246.709 25.5 244.5 25.5C242.291 25.5 240.5 27.2909 240.5 29.5Z" fill="#228BDA"/>
<path fill-rule="evenodd" clip-rule="evenodd" d="M240.5 129.5C240.5 131.709 242.291 133.5 244.5 133.5C246.709 133.5 248.5 131.709 248.5 129.5C248.5 127.291 246.709 125.5 244.5 125.5C242.291 125.5 240.5 127.291 240.5 129.5Z" fill="#228BDA"/>
<path fill-rule="evenodd" clip-rule="evenodd" d="M240.5 4.5C240.5 6.70914 242.291 8.5 244.5 8.5C246.709 8.5 248.5 6.70914 248.5 4.5C248.5 2.29086 246.709 0.5 244.5 0.5C242.291 0.5 240.5 2.29086 240.5 4.5Z" fill="#228BDA"/>
<path fill-rule="evenodd" clip-rule="evenodd" d="M240.5 104.5C240.5 106.709 242.291 108.5 244.5 108.5C246.709 108.5 248.5 106.709 248.5 104.5C248.5 102.291 246.709 100.5 244.5 100.5C242.291 100.5 240.5 102.291 240.5 104.5Z" fill="#228BDA"/>
<path fill-rule="evenodd" clip-rule="evenodd" d="M240.5 79.5C240.5 81.7091 242.291 83.5 244.5 83.5C246.709 83.5 248.5 81.7091 248.5 79.5C248.5 77.2909 246.709 75.5 244.5 75.5C242.291 75.5 240.5 77.2909 240.5 79.5Z" fill="#228BDA"/>
<path fill-rule="evenodd" clip-rule="evenodd" d="M240.5 179.5C240.5 181.709 242.291 183.5 244.5 183.5C246.709 183.5 248.5 181.709 248.5 179.5C248.5 177.291 246.709 175.5 244.5 175.5C242.291 175.5 240.5 177.291 240.5 179.5Z" fill="#228BDA"/>
<path fill-rule="evenodd" clip-rule="evenodd" d="M150.5 54.5C150.5 56.7091 152.291 58.5 154.5 58.5C156.709 58.5 158.5 56.7091 158.5 54.5C158.5 52.2909 156.709 50.5 154.5 50.5C152.291 50.5 150.5 52.2909 150.5 54.5Z" fill="#228BDA"/>
<path fill-rule="evenodd" clip-rule="evenodd" d="M150.5 154.5C150.5 156.709 152.291 158.5 154.5 158.5C156.709 158.5 158.5 156.709 158.5 154.5C158.5 152.291 156.709 150.5 154.5 150.5C152.291 150.5 150.5 152.291 150.5 154.5Z" fill="#228BDA"/>
<path fill-rule="evenodd" clip-rule="evenodd" d="M150.5 29.5C150.5 31.7091 152.291 33.5 154.5 33.5C156.709 33.5 158.5 31.7091 158.5 29.5C158.5 27.2909 156.709 25.5 154.5 25.5C152.291 25.5 150.5 27.2909 150.5 29.5Z" fill="#228BDA"/>
<path fill-rule="evenodd" clip-rule="evenodd" d="M150.5 129.5C150.5 131.709 152.291 133.5 154.5 133.5C156.709 133.5 158.5 131.709 158.5 129.5C158.5 127.291 156.709 125.5 154.5 125.5C152.291 125.5 150.5 127.291 150.5 129.5Z" fill="#228BDA"/>
<path fill-rule="evenodd" clip-rule="evenodd" d="M150.5 4.5C150.5 6.70914 152.291 8.5 154.5 8.5C156.709 8.5 158.5 6.70914 158.5 4.5C158.5 2.29086 156.709 0.5 154.5 0.5C152.291 0.5 150.5 2.29086 150.5 4.5Z" fill="#228BDA"/>
<path fill-rule="evenodd" clip-rule="evenodd" d="M150.5 104.5C150.5 106.709 152.291 108.5 154.5 108.5C156.709 108.5 158.5 106.709 158.5 104.5C158.5 102.291 156.709 100.5 154.5 100.5C152.291 100.5 150.5 102.291 150.5 104.5Z" fill="#228BDA"/>
<path fill-rule="evenodd" clip-rule="evenodd" d="M150.5 79.5C150.5 81.7091 152.291 83.5 154.5 83.5C156.709 83.5 158.5 81.7091 158.5 79.5C158.5 77.2909 156.709 75.5 154.5 75.5C152.291 75.5 150.5 77.2909 150.5 79.5Z" fill="#228BDA"/>
<path fill-rule="evenodd" clip-rule="evenodd" d="M150.5 179.5C150.5 181.709 152.291 183.5 154.5 183.5C156.709 183.5 158.5 181.709 158.5 179.5C158.5 177.291 156.709 175.5 154.5 175.5C152.291 175.5 150.5 177.291 150.5 179.5Z" fill="#228BDA"/>
<path fill-rule="evenodd" clip-rule="evenodd" d="M90.5 54.5C90.5 56.7091 92.2909 58.5 94.5 58.5C96.7091 58.5 98.5 56.7091 98.5 54.5C98.5 52.2909 96.7091 50.5 94.5 50.5C92.2909 50.5 90.5 52.2909 90.5 54.5Z" fill="#228BDA"/>
<path fill-rule="evenodd" clip-rule="evenodd" d="M90.5 154.5C90.5 156.709 92.2909 158.5 94.5 158.5C96.7091 158.5 98.5 156.709 98.5 154.5C98.5 152.291 96.7091 150.5 94.5 150.5C92.2909 150.5 90.5 152.291 90.5 154.5Z" fill="#228BDA"/>
<path fill-rule="evenodd" clip-rule="evenodd" d="M90.5 29.5C90.5 31.7091 92.2909 33.5 94.5 33.5C96.7091 33.5 98.5 31.7091 98.5 29.5C98.5 27.2909 96.7091 25.5 94.5 25.5C92.2909 25.5 90.5 27.2909 90.5 29.5Z" fill="#228BDA"/>
<path fill-rule="evenodd" clip-rule="evenodd" d="M90.5 129.5C90.5 131.709 92.2909 133.5 94.5 133.5C96.7091 133.5 98.5 131.709 98.5 129.5C98.5 127.291 96.7091 125.5 94.5 125.5C92.2909 125.5 90.5 127.291 90.5 129.5Z" fill="#228BDA"/>
<path fill-rule="evenodd" clip-rule="evenodd" d="M90.5 4.5C90.5 6.70914 92.2909 8.5 94.5 8.5C96.7091 8.5 98.5 6.70914 98.5 4.5C98.5 2.29086 96.7091 0.5 94.5 0.5C92.2909 0.5 90.5 2.29086 90.5 4.5Z" fill="#228BDA"/>
<path fill-rule="evenodd" clip-rule="evenodd" d="M90.5 104.5C90.5 106.709 92.2909 108.5 94.5 108.5C96.7091 108.5 98.5 106.709 98.5 104.5C98.5 102.291 96.7091 100.5 94.5 100.5C92.2909 100.5 90.5 102.291 90.5 104.5Z" fill="#228BDA"/>
<path fill-rule="evenodd" clip-rule="evenodd" d="M90.5 79.5C90.5 81.7091 92.2909 83.5 94.5 83.5C96.7091 83.5 98.5 81.7091 98.5 79.5C98.5 77.2909 96.7091 75.5 94.5 75.5C92.2909 75.5 90.5 77.2909 90.5 79.5Z" fill="#228BDA"/>
<path fill-rule="evenodd" clip-rule="evenodd" d="M90.5 179.5C90.5 181.709 92.2909 183.5 94.5 183.5C96.7091 183.5 98.5 181.709 98.5 179.5C98.5 177.291 96.7091 175.5 94.5 175.5C92.2909 175.5 90.5 177.291 90.5 179.5Z" fill="#228BDA"/>
<path fill-rule="evenodd" clip-rule="evenodd" d="M30.5 54.5C30.5 56.7091 32.2909 58.5 34.5 58.5C36.7091 58.5 38.5 56.7091 38.5 54.5C38.5 52.2909 36.7091 50.5 34.5 50.5C32.2909 50.5 30.5 52.2909 30.5 54.5Z" fill="#228BDA"/>
<path fill-rule="evenodd" clip-rule="evenodd" d="M30.5 154.5C30.5 156.709 32.2909 158.5 34.5 158.5C36.7091 158.5 38.5 156.709 38.5 154.5C38.5 152.291 36.7091 150.5 34.5 150.5C32.2909 150.5 30.5 152.291 30.5 154.5Z" fill="#228BDA"/>
<path fill-rule="evenodd" clip-rule="evenodd" d="M30.5 29.5C30.5 31.7091 32.2909 33.5 34.5 33.5C36.7091 33.5 38.5 31.7091 38.5 29.5C38.5 27.2909 36.7091 25.5 34.5 25.5C32.2909 25.5 30.5 27.2909 30.5 29.5Z" fill="#228BDA"/>
<path fill-rule="evenodd" clip-rule="evenodd" d="M30.5 129.5C30.5 131.709 32.2909 133.5 34.5 133.5C36.7091 133.5 38.5 131.709 38.5 129.5C38.5 127.291 36.7091 125.5 34.5 125.5C32.2909 125.5 30.5 127.291 30.5 129.5Z" fill="#228BDA"/>
<path fill-rule="evenodd" clip-rule="evenodd" d="M30.5 4.5C30.5 6.70914 32.2909 8.5 34.5 8.5C36.7091 8.5 38.5 6.70914 38.5 4.5C38.5 2.29086 36.7091 0.5 34.5 0.5C32.2909 0.5 30.5 2.29086 30.5 4.5Z" fill="#228BDA"/>
<path fill-rule="evenodd" clip-rule="evenodd" d="M30.5 104.5C30.5 106.709 32.2909 108.5 34.5 108.5C36.7091 108.5 38.5 106.709 38.5 104.5C38.5 102.291 36.7091 100.5 34.5 100.5C32.2909 100.5 30.5 102.291 30.5 104.5Z" fill="#228BDA"/>
<path fill-rule="evenodd" clip-rule="evenodd" d="M30.5 79.5C30.5 81.7091 32.2909 83.5 34.5 83.5C36.7091 83.5 38.5 81.7091 38.5 79.5C38.5 77.2909 36.7091 75.5 34.5 75.5C32.2909 75.5 30.5 77.2909 30.5 79.5Z" fill="#228BDA"/>
<path fill-rule="evenodd" clip-rule="evenodd" d="M30.5 179.5C30.5 181.709 32.2909 183.5 34.5 183.5C36.7091 183.5 38.5 181.709 38.5 179.5C38.5 177.291 36.7091 175.5 34.5 175.5C32.2909 175.5 30.5 177.291 30.5 179.5Z" fill="#228BDA"/>
<path fill-rule="evenodd" clip-rule="evenodd" d="M270.5 54.5C270.5 56.7091 272.291 58.5 274.5 58.5C276.709 58.5 278.5 56.7091 278.5 54.5C278.5 52.2909 276.709 50.5 274.5 50.5C272.291 50.5 270.5 52.2909 270.5 54.5Z" fill="#228BDA"/>
<path fill-rule="evenodd" clip-rule="evenodd" d="M270.5 154.5C270.5 156.709 272.291 158.5 274.5 158.5C276.709 158.5 278.5 156.709 278.5 154.5C278.5 152.291 276.709 150.5 274.5 150.5C272.291 150.5 270.5 152.291 270.5 154.5Z" fill="#228BDA"/>
<path fill-rule="evenodd" clip-rule="evenodd" d="M270.5 29.5C270.5 31.7091 272.291 33.5 274.5 33.5C276.709 33.5 278.5 31.7091 278.5 29.5C278.5 27.2909 276.709 25.5 274.5 25.5C272.291 25.5 270.5 27.2909 270.5 29.5Z" fill="#228BDA"/>
<path fill-rule="evenodd" clip-rule="evenodd" d="M270.5 129.5C270.5 131.709 272.291 133.5 274.5 133.5C276.709 133.5 278.5 131.709 278.5 129.5C278.5 127.291 276.709 125.5 274.5 125.5C272.291 125.5 270.5 127.291 270.5 129.5Z" fill="#228BDA"/>
<path fill-rule="evenodd" clip-rule="evenodd" d="M270.5 4.5C270.5 6.70914 272.291 8.5 274.5 8.5C276.709 8.5 278.5 6.70914 278.5 4.5C278.5 2.29086 276.709 0.5 274.5 0.5C272.291 0.5 270.5 2.29086 270.5 4.5Z" fill="#228BDA"/>
<path fill-rule="evenodd" clip-rule="evenodd" d="M270.5 104.5C270.5 106.709 272.291 108.5 274.5 108.5C276.709 108.5 278.5 106.709 278.5 104.5C278.5 102.291 276.709 100.5 274.5 100.5C272.291 100.5 270.5 102.291 270.5 104.5Z" fill="#228BDA"/>
<path fill-rule="evenodd" clip-rule="evenodd" d="M270.5 79.5C270.5 81.7091 272.291 83.5 274.5 83.5C276.709 83.5 278.5 81.7091 278.5 79.5C278.5 77.2909 276.709 75.5 274.5 75.5C272.291 75.5 270.5 77.2909 270.5 79.5Z" fill="#228BDA"/>
<path fill-rule="evenodd" clip-rule="evenodd" d="M270.5 179.5C270.5 181.709 272.291 183.5 274.5 183.5C276.709 183.5 278.5 181.709 278.5 179.5C278.5 177.291 276.709 175.5 274.5 175.5C272.291 175.5 270.5 177.291 270.5 179.5Z" fill="#228BDA"/>
<path fill-rule="evenodd" clip-rule="evenodd" d="M180.5 54.5C180.5 56.7091 182.291 58.5 184.5 58.5C186.709 58.5 188.5 56.7091 188.5 54.5C188.5 52.2909 186.709 50.5 184.5 50.5C182.291 50.5 180.5 52.2909 180.5 54.5Z" fill="#228BDA"/>
<path fill-rule="evenodd" clip-rule="evenodd" d="M180.5 154.5C180.5 156.709 182.291 158.5 184.5 158.5C186.709 158.5 188.5 156.709 188.5 154.5C188.5 152.291 186.709 150.5 184.5 150.5C182.291 150.5 180.5 152.291 180.5 154.5Z" fill="#228BDA"/>
<path fill-rule="evenodd" clip-rule="evenodd" d="M180.5 29.5C180.5 31.7091 182.291 33.5 184.5 33.5C186.709 33.5 188.5 31.7091 188.5 29.5C188.5 27.2909 186.709 25.5 184.5 25.5C182.291 25.5 180.5 27.2909 180.5 29.5Z" fill="#228BDA"/>
<path fill-rule="evenodd" clip-rule="evenodd" d="M180.5 129.5C180.5 131.709 182.291 133.5 184.5 133.5C186.709 133.5 188.5 131.709 188.5 129.5C188.5 127.291 186.709 125.5 184.5 125.5C182.291 125.5 180.5 127.291 180.5 129.5Z" fill="#228BDA"/>
<path fill-rule="evenodd" clip-rule="evenodd" d="M180.5 4.5C180.5 6.70914 182.291 8.5 184.5 8.5C186.709 8.5 188.5 6.70914 188.5 4.5C188.5 2.29086 186.709 0.5 184.5 0.5C182.291 0.5 180.5 2.29086 180.5 4.5Z" fill="#228BDA"/>
<path fill-rule="evenodd" clip-rule="evenodd" d="M180.5 104.5C180.5 106.709 182.291 108.5 184.5 108.5C186.709 108.5 188.5 106.709 188.5 104.5C188.5 102.291 186.709 100.5 184.5 100.5C182.291 100.5 180.5 102.291 180.5 104.5Z" fill="#228BDA"/>
<path fill-rule="evenodd" clip-rule="evenodd" d="M180.5 79.5C180.5 81.7091 182.291 83.5 184.5 83.5C186.709 83.5 188.5 81.7091 188.5 79.5C188.5 77.2909 186.709 75.5 184.5 75.5C182.291 75.5 180.5 77.2909 180.5 79.5Z" fill="#228BDA"/>
<path fill-rule="evenodd" clip-rule="evenodd" d="M180.5 179.5C180.5 181.709 182.291 183.5 184.5 183.5C186.709 183.5 188.5 181.709 188.5 179.5C188.5 177.291 186.709 175.5 184.5 175.5C182.291 175.5 180.5 177.291 180.5 179.5Z" fill="#228BDA"/>
<path fill-rule="evenodd" clip-rule="evenodd" d="M210.5 54.5C210.5 56.7091 212.291 58.5 214.5 58.5C216.709 58.5 218.5 56.7091 218.5 54.5C218.5 52.2909 216.709 50.5 214.5 50.5C212.291 50.5 210.5 52.2909 210.5 54.5Z" fill="#228BDA"/>
<path fill-rule="evenodd" clip-rule="evenodd" d="M210.5 154.5C210.5 156.709 212.291 158.5 214.5 158.5C216.709 158.5 218.5 156.709 218.5 154.5C218.5 152.291 216.709 150.5 214.5 150.5C212.291 150.5 210.5 152.291 210.5 154.5Z" fill="#228BDA"/>
<path fill-rule="evenodd" clip-rule="evenodd" d="M210.5 29.5C210.5 31.7091 212.291 33.5 214.5 33.5C216.709 33.5 218.5 31.7091 218.5 29.5C218.5 27.2909 216.709 25.5 214.5 25.5C212.291 25.5 210.5 27.2909 210.5 29.5Z" fill="#228BDA"/>
<path fill-rule="evenodd" clip-rule="evenodd" d="M210.5 129.5C210.5 131.709 212.291 133.5 214.5 133.5C216.709 133.5 218.5 131.709 218.5 129.5C218.5 127.291 216.709 125.5 214.5 125.5C212.291 125.5 210.5 127.291 210.5 129.5Z" fill="#228BDA"/>
<path fill-rule="evenodd" clip-rule="evenodd" d="M210.5 4.5C210.5 6.70914 212.291 8.5 214.5 8.5C216.709 8.5 218.5 6.70914 218.5 4.5C218.5 2.29086 216.709 0.5 214.5 0.5C212.291 0.5 210.5 2.29086 210.5 4.5Z" fill="#228BDA"/>
<path fill-rule="evenodd" clip-rule="evenodd" d="M210.5 104.5C210.5 106.709 212.291 108.5 214.5 108.5C216.709 108.5 218.5 106.709 218.5 104.5C218.5 102.291 216.709 100.5 214.5 100.5C212.291 100.5 210.5 102.291 210.5 104.5Z" fill="#228BDA"/>
<path fill-rule="evenodd" clip-rule="evenodd" d="M210.5 79.5C210.5 81.7091 212.291 83.5 214.5 83.5C216.709 83.5 218.5 81.7091 218.5 79.5C218.5 77.2909 216.709 75.5 214.5 75.5C212.291 75.5 210.5 77.2909 210.5 79.5Z" fill="#228BDA"/>
<path fill-rule="evenodd" clip-rule="evenodd" d="M210.5 179.5C210.5 181.709 212.291 183.5 214.5 183.5C216.709 183.5 218.5 181.709 218.5 179.5C218.5 177.291 216.709 175.5 214.5 175.5C212.291 175.5 210.5 177.291 210.5 179.5Z" fill="#228BDA"/>
<path fill-rule="evenodd" clip-rule="evenodd" d="M120.5 54.5C120.5 56.7091 122.291 58.5 124.5 58.5C126.709 58.5 128.5 56.7091 128.5 54.5C128.5 52.2909 126.709 50.5 124.5 50.5C122.291 50.5 120.5 52.2909 120.5 54.5Z" fill="#228BDA"/>
<path fill-rule="evenodd" clip-rule="evenodd" d="M120.5 154.5C120.5 156.709 122.291 158.5 124.5 158.5C126.709 158.5 128.5 156.709 128.5 154.5C128.5 152.291 126.709 150.5 124.5 150.5C122.291 150.5 120.5 152.291 120.5 154.5Z" fill="#228BDA"/>
<path fill-rule="evenodd" clip-rule="evenodd" d="M120.5 29.5C120.5 31.7091 122.291 33.5 124.5 33.5C126.709 33.5 128.5 31.7091 128.5 29.5C128.5 27.2909 126.709 25.5 124.5 25.5C122.291 25.5 120.5 27.2909 120.5 29.5Z" fill="#228BDA"/>
<path fill-rule="evenodd" clip-rule="evenodd" d="M120.5 129.5C120.5 131.709 122.291 133.5 124.5 133.5C126.709 133.5 128.5 131.709 128.5 129.5C128.5 127.291 126.709 125.5 124.5 125.5C122.291 125.5 120.5 127.291 120.5 129.5Z" fill="#228BDA"/>
<path fill-rule="evenodd" clip-rule="evenodd" d="M120.5 4.5C120.5 6.70914 122.291 8.5 124.5 8.5C126.709 8.5 128.5 6.70914 128.5 4.5C128.5 2.29086 126.709 0.5 124.5 0.5C122.291 0.5 120.5 2.29086 120.5 4.5Z" fill="#228BDA"/>
<path fill-rule="evenodd" clip-rule="evenodd" d="M120.5 104.5C120.5 106.709 122.291 108.5 124.5 108.5C126.709 108.5 128.5 106.709 128.5 104.5C128.5 102.291 126.709 100.5 124.5 100.5C122.291 100.5 120.5 102.291 120.5 104.5Z" fill="#228BDA"/>
<path fill-rule="evenodd" clip-rule="evenodd" d="M120.5 79.5C120.5 81.7091 122.291 83.5 124.5 83.5C126.709 83.5 128.5 81.7091 128.5 79.5C128.5 77.2909 126.709 75.5 124.5 75.5C122.291 75.5 120.5 77.2909 120.5 79.5Z" fill="#228BDA"/>
<path fill-rule="evenodd" clip-rule="evenodd" d="M120.5 179.5C120.5 181.709 122.291 183.5 124.5 183.5C126.709 183.5 128.5 181.709 128.5 179.5C128.5 177.291 126.709 175.5 124.5 175.5C122.291 175.5 120.5 177.291 120.5 179.5Z" fill="#228BDA"/>
<path fill-rule="evenodd" clip-rule="evenodd" d="M60.5 54.5C60.5 56.7091 62.2909 58.5 64.5 58.5C66.7091 58.5 68.5 56.7091 68.5 54.5C68.5 52.2909 66.7091 50.5 64.5 50.5C62.2909 50.5 60.5 52.2909 60.5 54.5Z" fill="#228BDA"/>
<path fill-rule="evenodd" clip-rule="evenodd" d="M60.5 154.5C60.5 156.709 62.2909 158.5 64.5 158.5C66.7091 158.5 68.5 156.709 68.5 154.5C68.5 152.291 66.7091 150.5 64.5 150.5C62.2909 150.5 60.5 152.291 60.5 154.5Z" fill="#228BDA"/>
<path fill-rule="evenodd" clip-rule="evenodd" d="M60.5 29.5C60.5 31.7091 62.2909 33.5 64.5 33.5C66.7091 33.5 68.5 31.7091 68.5 29.5C68.5 27.2909 66.7091 25.5 64.5 25.5C62.2909 25.5 60.5 27.2909 60.5 29.5Z" fill="#228BDA"/>
<path fill-rule="evenodd" clip-rule="evenodd" d="M60.5 129.5C60.5 131.709 62.2909 133.5 64.5 133.5C66.7091 133.5 68.5 131.709 68.5 129.5C68.5 127.291 66.7091 125.5 64.5 125.5C62.2909 125.5 60.5 127.291 60.5 129.5Z" fill="#228BDA"/>
<path fill-rule="evenodd" clip-rule="evenodd" d="M60.5 4.5C60.5 6.70914 62.2909 8.5 64.5 8.5C66.7091 8.5 68.5 6.70914 68.5 4.5C68.5 2.29086 66.7091 0.5 64.5 0.5C62.2909 0.5 60.5 2.29086 60.5 4.5Z" fill="#228BDA"/>
<path fill-rule="evenodd" clip-rule="evenodd" d="M60.5 104.5C60.5 106.709 62.2909 108.5 64.5 108.5C66.7091 108.5 68.5 106.709 68.5 104.5C68.5 102.291 66.7091 100.5 64.5 100.5C62.2909 100.5 60.5 102.291 60.5 104.5Z" fill="#228BDA"/>
<path fill-rule="evenodd" clip-rule="evenodd" d="M60.5 79.5C60.5 81.7091 62.2909 83.5 64.5 83.5C66.7091 83.5 68.5 81.7091 68.5 79.5C68.5 77.2909 66.7091 75.5 64.5 75.5C62.2909 75.5 60.5 77.2909 60.5 79.5Z" fill="#228BDA"/>
<path fill-rule="evenodd" clip-rule="evenodd" d="M60.5 179.5C60.5 181.709 62.2909 183.5 64.5 183.5C66.7091 183.5 68.5 181.709 68.5 179.5C68.5 177.291 66.7091 175.5 64.5 175.5C62.2909 175.5 60.5 177.291 60.5 179.5Z" fill="#228BDA"/>
<path fill-rule="evenodd" clip-rule="evenodd" d="M0.5 54.5C0.5 56.7091 2.29086 58.5 4.5 58.5C6.70914 58.5 8.5 56.7091 8.5 54.5C8.5 52.2909 6.70914 50.5 4.5 50.5C2.29086 50.5 0.5 52.2909 0.5 54.5Z" fill="#228BDA"/>
<path fill-rule="evenodd" clip-rule="evenodd" d="M0.5 154.5C0.5 156.709 2.29086 158.5 4.5 158.5C6.70914 158.5 8.5 156.709 8.5 154.5C8.5 152.291 6.70914 150.5 4.5 150.5C2.29086 150.5 0.5 152.291 0.5 154.5Z" fill="#228BDA"/>
<path fill-rule="evenodd" clip-rule="evenodd" d="M0.5 29.5C0.5 31.7091 2.29086 33.5 4.5 33.5C6.70914 33.5 8.5 31.7091 8.5 29.5C8.5 27.2909 6.70914 25.5 4.5 25.5C2.29086 25.5 0.5 27.2909 0.5 29.5Z" fill="#228BDA"/>
<path fill-rule="evenodd" clip-rule="evenodd" d="M0.5 129.5C0.5 131.709 2.29086 133.5 4.5 133.5C6.70914 133.5 8.5 131.709 8.5 129.5C8.5 127.291 6.70914 125.5 4.5 125.5C2.29086 125.5 0.5 127.291 0.5 129.5Z" fill="#228BDA"/>
<path fill-rule="evenodd" clip-rule="evenodd" d="M0.5 4.5C0.5 6.70914 2.29086 8.5 4.5 8.5C6.70914 8.5 8.5 6.70914 8.5 4.5C8.5 2.29086 6.70914 0.5 4.5 0.5C2.29086 0.5 0.5 2.29086 0.5 4.5Z" fill="#228BDA"/>
<path fill-rule="evenodd" clip-rule="evenodd" d="M0.5 104.5C0.5 106.709 2.29086 108.5 4.5 108.5C6.70914 108.5 8.5 106.709 8.5 104.5C8.5 102.291 6.70914 100.5 4.5 100.5C2.29086 100.5 0.5 102.291 0.5 104.5Z" fill="#228BDA"/>
<path fill-rule="evenodd" clip-rule="evenodd" d="M0.5 79.5C0.5 81.7091 2.29086 83.5 4.5 83.5C6.70914 83.5 8.5 81.7091 8.5 79.5C8.5 77.2909 6.70914 75.5 4.5 75.5C2.29086 75.5 0.5 77.2909 0.5 79.5Z" fill="#228BDA"/>
<path fill-rule="evenodd" clip-rule="evenodd" d="M0.5 179.5C0.5 181.709 2.29086 183.5 4.5 183.5C6.70914 183.5 8.5 181.709 8.5 179.5C8.5 177.291 6.70914 175.5 4.5 175.5C2.29086 175.5 0.5 177.291 0.5 179.5Z" fill="#228BDA"/>
</svg>
