<svg width="183" height="308" viewBox="0 0 183 308" fill="none" xmlns="http://www.w3.org/2000/svg">
<path fill-rule="evenodd" clip-rule="evenodd" d="M54 8C56.2091 8 58 6.20914 58 4C58 1.79086 56.2091 0 54 0C51.7909 0 50 1.79086 50 4C50 6.20914 51.7909 8 54 8Z" fill="#228BDA"/>
<path fill-rule="evenodd" clip-rule="evenodd" d="M154 8C156.209 8 158 6.20914 158 4C158 1.79086 156.209 0 154 0C151.791 0 150 1.79086 150 4C150 6.20914 151.791 8 154 8Z" fill="#228BDA"/>
<path fill-rule="evenodd" clip-rule="evenodd" d="M29 8C31.2091 8 33 6.20914 33 4C33 1.79086 31.2091 0 29 0C26.7909 0 25 1.79086 25 4C25 6.20914 26.7909 8 29 8Z" fill="#228BDA"/>
<path fill-rule="evenodd" clip-rule="evenodd" d="M129 8C131.209 8 133 6.20914 133 4C133 1.79086 131.209 0 129 0C126.791 0 125 1.79086 125 4C125 6.20914 126.791 8 129 8Z" fill="#228BDA"/>
<path fill-rule="evenodd" clip-rule="evenodd" d="M4 8C6.20914 8 8 6.20914 8 4C8 1.79086 6.20914 0 4 0C1.79086 0 0 1.79086 0 4C0 6.20914 1.79086 8 4 8Z" fill="#228BDA"/>
<path fill-rule="evenodd" clip-rule="evenodd" d="M104 8C106.209 8 108 6.20914 108 4C108 1.79086 106.209 0 104 0C101.791 0 100 1.79086 100 4C100 6.20914 101.791 8 104 8Z" fill="#228BDA"/>
<path fill-rule="evenodd" clip-rule="evenodd" d="M79 8C81.2091 8 83 6.20914 83 4C83 1.79086 81.2091 0 79 0C76.7909 0 75 1.79086 75 4C75 6.20914 76.7909 8 79 8Z" fill="#228BDA"/>
<path fill-rule="evenodd" clip-rule="evenodd" d="M179 8C181.209 8 183 6.20914 183 4C183 1.79086 181.209 0 179 0C176.791 0 175 1.79086 175 4C175 6.20914 176.791 8 179 8Z" fill="#228BDA"/>
<path fill-rule="evenodd" clip-rule="evenodd" d="M54 68C56.2091 68 58 66.2091 58 64C58 61.7909 56.2091 60 54 60C51.7909 60 50 61.7909 50 64C50 66.2091 51.7909 68 54 68Z" fill="#228BDA"/>
<path fill-rule="evenodd" clip-rule="evenodd" d="M154 68C156.209 68 158 66.2091 158 64C158 61.7909 156.209 60 154 60C151.791 60 150 61.7909 150 64C150 66.2091 151.791 68 154 68Z" fill="#228BDA"/>
<path fill-rule="evenodd" clip-rule="evenodd" d="M29 68C31.2091 68 33 66.2091 33 64C33 61.7909 31.2091 60 29 60C26.7909 60 25 61.7909 25 64C25 66.2091 26.7909 68 29 68Z" fill="#228BDA"/>
<path fill-rule="evenodd" clip-rule="evenodd" d="M129 68C131.209 68 133 66.2091 133 64C133 61.7909 131.209 60 129 60C126.791 60 125 61.7909 125 64C125 66.2091 126.791 68 129 68Z" fill="#228BDA"/>
<path fill-rule="evenodd" clip-rule="evenodd" d="M4 68C6.20914 68 8 66.2091 8 64C8 61.7909 6.20914 60 4 60C1.79086 60 0 61.7909 0 64C0 66.2091 1.79086 68 4 68Z" fill="#228BDA"/>
<path fill-rule="evenodd" clip-rule="evenodd" d="M104 68C106.209 68 108 66.2091 108 64C108 61.7909 106.209 60 104 60C101.791 60 100 61.7909 100 64C100 66.2091 101.791 68 104 68Z" fill="#228BDA"/>
<path fill-rule="evenodd" clip-rule="evenodd" d="M79 68C81.2091 68 83 66.2091 83 64C83 61.7909 81.2091 60 79 60C76.7909 60 75 61.7909 75 64C75 66.2091 76.7909 68 79 68Z" fill="#228BDA"/>
<path fill-rule="evenodd" clip-rule="evenodd" d="M179 68C181.209 68 183 66.2091 183 64C183 61.7909 181.209 60 179 60C176.791 60 175 61.7909 175 64C175 66.2091 176.791 68 179 68Z" fill="#228BDA"/>
<path fill-rule="evenodd" clip-rule="evenodd" d="M54 158C56.2091 158 58 156.209 58 154C58 151.791 56.2091 150 54 150C51.7909 150 50 151.791 50 154C50 156.209 51.7909 158 54 158Z" fill="#228BDA"/>
<path fill-rule="evenodd" clip-rule="evenodd" d="M154 158C156.209 158 158 156.209 158 154C158 151.791 156.209 150 154 150C151.791 150 150 151.791 150 154C150 156.209 151.791 158 154 158Z" fill="#228BDA"/>
<path fill-rule="evenodd" clip-rule="evenodd" d="M29 158C31.2091 158 33 156.209 33 154C33 151.791 31.2091 150 29 150C26.7909 150 25 151.791 25 154C25 156.209 26.7909 158 29 158Z" fill="#228BDA"/>
<path fill-rule="evenodd" clip-rule="evenodd" d="M129 158C131.209 158 133 156.209 133 154C133 151.791 131.209 150 129 150C126.791 150 125 151.791 125 154C125 156.209 126.791 158 129 158Z" fill="#228BDA"/>
<path fill-rule="evenodd" clip-rule="evenodd" d="M4 158C6.20914 158 8 156.209 8 154C8 151.791 6.20914 150 4 150C1.79086 150 0 151.791 0 154C0 156.209 1.79086 158 4 158Z" fill="#228BDA"/>
<path fill-rule="evenodd" clip-rule="evenodd" d="M104 158C106.209 158 108 156.209 108 154C108 151.791 106.209 150 104 150C101.791 150 100 151.791 100 154C100 156.209 101.791 158 104 158Z" fill="#228BDA"/>
<path fill-rule="evenodd" clip-rule="evenodd" d="M79 158C81.2091 158 83 156.209 83 154C83 151.791 81.2091 150 79 150C76.7909 150 75 151.791 75 154C75 156.209 76.7909 158 79 158Z" fill="#228BDA"/>
<path fill-rule="evenodd" clip-rule="evenodd" d="M179 158C181.209 158 183 156.209 183 154C183 151.791 181.209 150 179 150C176.791 150 175 151.791 175 154C175 156.209 176.791 158 179 158Z" fill="#228BDA"/>
<path fill-rule="evenodd" clip-rule="evenodd" d="M54 218C56.2091 218 58 216.209 58 214C58 211.791 56.2091 210 54 210C51.7909 210 50 211.791 50 214C50 216.209 51.7909 218 54 218Z" fill="#228BDA"/>
<path fill-rule="evenodd" clip-rule="evenodd" d="M154 218C156.209 218 158 216.209 158 214C158 211.791 156.209 210 154 210C151.791 210 150 211.791 150 214C150 216.209 151.791 218 154 218Z" fill="#228BDA"/>
<path fill-rule="evenodd" clip-rule="evenodd" d="M29 218C31.2091 218 33 216.209 33 214C33 211.791 31.2091 210 29 210C26.7909 210 25 211.791 25 214C25 216.209 26.7909 218 29 218Z" fill="#228BDA"/>
<path fill-rule="evenodd" clip-rule="evenodd" d="M129 218C131.209 218 133 216.209 133 214C133 211.791 131.209 210 129 210C126.791 210 125 211.791 125 214C125 216.209 126.791 218 129 218Z" fill="#228BDA"/>
<path fill-rule="evenodd" clip-rule="evenodd" d="M4 218C6.20914 218 8 216.209 8 214C8 211.791 6.20914 210 4 210C1.79086 210 0 211.791 0 214C0 216.209 1.79086 218 4 218Z" fill="#228BDA"/>
<path fill-rule="evenodd" clip-rule="evenodd" d="M104 218C106.209 218 108 216.209 108 214C108 211.791 106.209 210 104 210C101.791 210 100 211.791 100 214C100 216.209 101.791 218 104 218Z" fill="#228BDA"/>
<path fill-rule="evenodd" clip-rule="evenodd" d="M79 218C81.2091 218 83 216.209 83 214C83 211.791 81.2091 210 79 210C76.7909 210 75 211.791 75 214C75 216.209 76.7909 218 79 218Z" fill="#228BDA"/>
<path fill-rule="evenodd" clip-rule="evenodd" d="M179 218C181.209 218 183 216.209 183 214C183 211.791 181.209 210 179 210C176.791 210 175 211.791 175 214C175 216.209 176.791 218 179 218Z" fill="#228BDA"/>
<path fill-rule="evenodd" clip-rule="evenodd" d="M54 278C56.2091 278 58 276.209 58 274C58 271.791 56.2091 270 54 270C51.7909 270 50 271.791 50 274C50 276.209 51.7909 278 54 278Z" fill="#228BDA"/>
<path fill-rule="evenodd" clip-rule="evenodd" d="M154 278C156.209 278 158 276.209 158 274C158 271.791 156.209 270 154 270C151.791 270 150 271.791 150 274C150 276.209 151.791 278 154 278Z" fill="#228BDA"/>
<path fill-rule="evenodd" clip-rule="evenodd" d="M29 278C31.2091 278 33 276.209 33 274C33 271.791 31.2091 270 29 270C26.7909 270 25 271.791 25 274C25 276.209 26.7909 278 29 278Z" fill="#228BDA"/>
<path fill-rule="evenodd" clip-rule="evenodd" d="M129 278C131.209 278 133 276.209 133 274C133 271.791 131.209 270 129 270C126.791 270 125 271.791 125 274C125 276.209 126.791 278 129 278Z" fill="#228BDA"/>
<path fill-rule="evenodd" clip-rule="evenodd" d="M4 278C6.20914 278 8 276.209 8 274C8 271.791 6.20914 270 4 270C1.79086 270 0 271.791 0 274C0 276.209 1.79086 278 4 278Z" fill="#228BDA"/>
<path fill-rule="evenodd" clip-rule="evenodd" d="M104 278C106.209 278 108 276.209 108 274C108 271.791 106.209 270 104 270C101.791 270 100 271.791 100 274C100 276.209 101.791 278 104 278Z" fill="#228BDA"/>
<path fill-rule="evenodd" clip-rule="evenodd" d="M79 278C81.2091 278 83 276.209 83 274C83 271.791 81.2091 270 79 270C76.7909 270 75 271.791 75 274C75 276.209 76.7909 278 79 278Z" fill="#228BDA"/>
<path fill-rule="evenodd" clip-rule="evenodd" d="M179 278C181.209 278 183 276.209 183 274C183 271.791 181.209 270 179 270C176.791 270 175 271.791 175 274C175 276.209 176.791 278 179 278Z" fill="#228BDA"/>
<path fill-rule="evenodd" clip-rule="evenodd" d="M54 38C56.2091 38 58 36.2091 58 34C58 31.7909 56.2091 30 54 30C51.7909 30 50 31.7909 50 34C50 36.2091 51.7909 38 54 38Z" fill="#228BDA"/>
<path fill-rule="evenodd" clip-rule="evenodd" d="M154 38C156.209 38 158 36.2091 158 34C158 31.7909 156.209 30 154 30C151.791 30 150 31.7909 150 34C150 36.2091 151.791 38 154 38Z" fill="#228BDA"/>
<path fill-rule="evenodd" clip-rule="evenodd" d="M29 38C31.2091 38 33 36.2091 33 34C33 31.7909 31.2091 30 29 30C26.7909 30 25 31.7909 25 34C25 36.2091 26.7909 38 29 38Z" fill="#228BDA"/>
<path fill-rule="evenodd" clip-rule="evenodd" d="M129 38C131.209 38 133 36.2091 133 34C133 31.7909 131.209 30 129 30C126.791 30 125 31.7909 125 34C125 36.2091 126.791 38 129 38Z" fill="#228BDA"/>
<path fill-rule="evenodd" clip-rule="evenodd" d="M4 38C6.20914 38 8 36.2091 8 34C8 31.7909 6.20914 30 4 30C1.79086 30 0 31.7909 0 34C0 36.2091 1.79086 38 4 38Z" fill="#228BDA"/>
<path fill-rule="evenodd" clip-rule="evenodd" d="M104 38C106.209 38 108 36.2091 108 34C108 31.7909 106.209 30 104 30C101.791 30 100 31.7909 100 34C100 36.2091 101.791 38 104 38Z" fill="#228BDA"/>
<path fill-rule="evenodd" clip-rule="evenodd" d="M79 38C81.2091 38 83 36.2091 83 34C83 31.7909 81.2091 30 79 30C76.7909 30 75 31.7909 75 34C75 36.2091 76.7909 38 79 38Z" fill="#228BDA"/>
<path fill-rule="evenodd" clip-rule="evenodd" d="M179 38C181.209 38 183 36.2091 183 34C183 31.7909 181.209 30 179 30C176.791 30 175 31.7909 175 34C175 36.2091 176.791 38 179 38Z" fill="#228BDA"/>
<path fill-rule="evenodd" clip-rule="evenodd" d="M54 128C56.2091 128 58 126.209 58 124C58 121.791 56.2091 120 54 120C51.7909 120 50 121.791 50 124C50 126.209 51.7909 128 54 128Z" fill="#228BDA"/>
<path fill-rule="evenodd" clip-rule="evenodd" d="M154 128C156.209 128 158 126.209 158 124C158 121.791 156.209 120 154 120C151.791 120 150 121.791 150 124C150 126.209 151.791 128 154 128Z" fill="#228BDA"/>
<path fill-rule="evenodd" clip-rule="evenodd" d="M29 128C31.2091 128 33 126.209 33 124C33 121.791 31.2091 120 29 120C26.7909 120 25 121.791 25 124C25 126.209 26.7909 128 29 128Z" fill="#228BDA"/>
<path fill-rule="evenodd" clip-rule="evenodd" d="M129 128C131.209 128 133 126.209 133 124C133 121.791 131.209 120 129 120C126.791 120 125 121.791 125 124C125 126.209 126.791 128 129 128Z" fill="#228BDA"/>
<path fill-rule="evenodd" clip-rule="evenodd" d="M4 128C6.20914 128 8 126.209 8 124C8 121.791 6.20914 120 4 120C1.79086 120 0 121.791 0 124C0 126.209 1.79086 128 4 128Z" fill="#228BDA"/>
<path fill-rule="evenodd" clip-rule="evenodd" d="M104 128C106.209 128 108 126.209 108 124C108 121.791 106.209 120 104 120C101.791 120 100 121.791 100 124C100 126.209 101.791 128 104 128Z" fill="#228BDA"/>
<path fill-rule="evenodd" clip-rule="evenodd" d="M79 128C81.2091 128 83 126.209 83 124C83 121.791 81.2091 120 79 120C76.7909 120 75 121.791 75 124C75 126.209 76.7909 128 79 128Z" fill="#228BDA"/>
<path fill-rule="evenodd" clip-rule="evenodd" d="M179 128C181.209 128 183 126.209 183 124C183 121.791 181.209 120 179 120C176.791 120 175 121.791 175 124C175 126.209 176.791 128 179 128Z" fill="#228BDA"/>
<path fill-rule="evenodd" clip-rule="evenodd" d="M54 98C56.2091 98 58 96.2091 58 94C58 91.7909 56.2091 90 54 90C51.7909 90 50 91.7909 50 94C50 96.2091 51.7909 98 54 98Z" fill="#228BDA"/>
<path fill-rule="evenodd" clip-rule="evenodd" d="M154 98C156.209 98 158 96.2091 158 94C158 91.7909 156.209 90 154 90C151.791 90 150 91.7909 150 94C150 96.2091 151.791 98 154 98Z" fill="#228BDA"/>
<path fill-rule="evenodd" clip-rule="evenodd" d="M29 98C31.2091 98 33 96.2091 33 94C33 91.7909 31.2091 90 29 90C26.7909 90 25 91.7909 25 94C25 96.2091 26.7909 98 29 98Z" fill="#228BDA"/>
<path fill-rule="evenodd" clip-rule="evenodd" d="M129 98C131.209 98 133 96.2091 133 94C133 91.7909 131.209 90 129 90C126.791 90 125 91.7909 125 94C125 96.2091 126.791 98 129 98Z" fill="#228BDA"/>
<path fill-rule="evenodd" clip-rule="evenodd" d="M4 98C6.20914 98 8 96.2091 8 94C8 91.7909 6.20914 90 4 90C1.79086 90 0 91.7909 0 94C0 96.2091 1.79086 98 4 98Z" fill="#228BDA"/>
<path fill-rule="evenodd" clip-rule="evenodd" d="M104 98C106.209 98 108 96.2091 108 94C108 91.7909 106.209 90 104 90C101.791 90 100 91.7909 100 94C100 96.2091 101.791 98 104 98Z" fill="#228BDA"/>
<path fill-rule="evenodd" clip-rule="evenodd" d="M79 98C81.2091 98 83 96.2091 83 94C83 91.7909 81.2091 90 79 90C76.7909 90 75 91.7909 75 94C75 96.2091 76.7909 98 79 98Z" fill="#228BDA"/>
<path fill-rule="evenodd" clip-rule="evenodd" d="M179 98C181.209 98 183 96.2091 183 94C183 91.7909 181.209 90 179 90C176.791 90 175 91.7909 175 94C175 96.2091 176.791 98 179 98Z" fill="#228BDA"/>
<path fill-rule="evenodd" clip-rule="evenodd" d="M54 188C56.2091 188 58 186.209 58 184C58 181.791 56.2091 180 54 180C51.7909 180 50 181.791 50 184C50 186.209 51.7909 188 54 188Z" fill="#228BDA"/>
<path fill-rule="evenodd" clip-rule="evenodd" d="M154 188C156.209 188 158 186.209 158 184C158 181.791 156.209 180 154 180C151.791 180 150 181.791 150 184C150 186.209 151.791 188 154 188Z" fill="#228BDA"/>
<path fill-rule="evenodd" clip-rule="evenodd" d="M29 188C31.2091 188 33 186.209 33 184C33 181.791 31.2091 180 29 180C26.7909 180 25 181.791 25 184C25 186.209 26.7909 188 29 188Z" fill="#228BDA"/>
<path fill-rule="evenodd" clip-rule="evenodd" d="M129 188C131.209 188 133 186.209 133 184C133 181.791 131.209 180 129 180C126.791 180 125 181.791 125 184C125 186.209 126.791 188 129 188Z" fill="#228BDA"/>
<path fill-rule="evenodd" clip-rule="evenodd" d="M4 188C6.20914 188 8 186.209 8 184C8 181.791 6.20914 180 4 180C1.79086 180 0 181.791 0 184C0 186.209 1.79086 188 4 188Z" fill="#228BDA"/>
<path fill-rule="evenodd" clip-rule="evenodd" d="M104 188C106.209 188 108 186.209 108 184C108 181.791 106.209 180 104 180C101.791 180 100 181.791 100 184C100 186.209 101.791 188 104 188Z" fill="#228BDA"/>
<path fill-rule="evenodd" clip-rule="evenodd" d="M79 188C81.2091 188 83 186.209 83 184C83 181.791 81.2091 180 79 180C76.7909 180 75 181.791 75 184C75 186.209 76.7909 188 79 188Z" fill="#228BDA"/>
<path fill-rule="evenodd" clip-rule="evenodd" d="M179 188C181.209 188 183 186.209 183 184C183 181.791 181.209 180 179 180C176.791 180 175 181.791 175 184C175 186.209 176.791 188 179 188Z" fill="#228BDA"/>
<path fill-rule="evenodd" clip-rule="evenodd" d="M54 248C56.2091 248 58 246.209 58 244C58 241.791 56.2091 240 54 240C51.7909 240 50 241.791 50 244C50 246.209 51.7909 248 54 248Z" fill="#228BDA"/>
<path fill-rule="evenodd" clip-rule="evenodd" d="M154 248C156.209 248 158 246.209 158 244C158 241.791 156.209 240 154 240C151.791 240 150 241.791 150 244C150 246.209 151.791 248 154 248Z" fill="#228BDA"/>
<path fill-rule="evenodd" clip-rule="evenodd" d="M29 248C31.2091 248 33 246.209 33 244C33 241.791 31.2091 240 29 240C26.7909 240 25 241.791 25 244C25 246.209 26.7909 248 29 248Z" fill="#228BDA"/>
<path fill-rule="evenodd" clip-rule="evenodd" d="M129 248C131.209 248 133 246.209 133 244C133 241.791 131.209 240 129 240C126.791 240 125 241.791 125 244C125 246.209 126.791 248 129 248Z" fill="#228BDA"/>
<path fill-rule="evenodd" clip-rule="evenodd" d="M4 248C6.20914 248 8 246.209 8 244C8 241.791 6.20914 240 4 240C1.79086 240 0 241.791 0 244C0 246.209 1.79086 248 4 248Z" fill="#228BDA"/>
<path fill-rule="evenodd" clip-rule="evenodd" d="M104 248C106.209 248 108 246.209 108 244C108 241.791 106.209 240 104 240C101.791 240 100 241.791 100 244C100 246.209 101.791 248 104 248Z" fill="#228BDA"/>
<path fill-rule="evenodd" clip-rule="evenodd" d="M79 248C81.2091 248 83 246.209 83 244C83 241.791 81.2091 240 79 240C76.7909 240 75 241.791 75 244C75 246.209 76.7909 248 79 248Z" fill="#228BDA"/>
<path fill-rule="evenodd" clip-rule="evenodd" d="M179 248C181.209 248 183 246.209 183 244C183 241.791 181.209 240 179 240C176.791 240 175 241.791 175 244C175 246.209 176.791 248 179 248Z" fill="#228BDA"/>
<path fill-rule="evenodd" clip-rule="evenodd" d="M54 308C56.2091 308 58 306.209 58 304C58 301.791 56.2091 300 54 300C51.7909 300 50 301.791 50 304C50 306.209 51.7909 308 54 308Z" fill="#228BDA"/>
<path fill-rule="evenodd" clip-rule="evenodd" d="M154 308C156.209 308 158 306.209 158 304C158 301.791 156.209 300 154 300C151.791 300 150 301.791 150 304C150 306.209 151.791 308 154 308Z" fill="#228BDA"/>
<path fill-rule="evenodd" clip-rule="evenodd" d="M29 308C31.2091 308 33 306.209 33 304C33 301.791 31.2091 300 29 300C26.7909 300 25 301.791 25 304C25 306.209 26.7909 308 29 308Z" fill="#228BDA"/>
<path fill-rule="evenodd" clip-rule="evenodd" d="M129 308C131.209 308 133 306.209 133 304C133 301.791 131.209 300 129 300C126.791 300 125 301.791 125 304C125 306.209 126.791 308 129 308Z" fill="#228BDA"/>
<path fill-rule="evenodd" clip-rule="evenodd" d="M4 308C6.20914 308 8 306.209 8 304C8 301.791 6.20914 300 4 300C1.79086 300 0 301.791 0 304C0 306.209 1.79086 308 4 308Z" fill="#228BDA"/>
<path fill-rule="evenodd" clip-rule="evenodd" d="M104 308C106.209 308 108 306.209 108 304C108 301.791 106.209 300 104 300C101.791 300 100 301.791 100 304C100 306.209 101.791 308 104 308Z" fill="#228BDA"/>
<path fill-rule="evenodd" clip-rule="evenodd" d="M79 308C81.2091 308 83 306.209 83 304C83 301.791 81.2091 300 79 300C76.7909 300 75 301.791 75 304C75 306.209 76.7909 308 79 308Z" fill="#228BDA"/>
<path fill-rule="evenodd" clip-rule="evenodd" d="M179 308C181.209 308 183 306.209 183 304C183 301.791 181.209 300 179 300C176.791 300 175 301.791 175 304C175 306.209 176.791 308 179 308Z" fill="#228BDA"/>
</svg>
