<svg width="16" height="18" viewBox="0 0 16 18" fill="none" xmlns="http://www.w3.org/2000/svg">
<path fill-rule="evenodd" clip-rule="evenodd" d="M8.00004 0.666748C10.3012 0.666748 12.1667 2.53223 12.1667 4.83341V7.33341C12.1666 9.56418 10.4095 11.3991 8.18087 11.4959L8.00004 11.5001C5.69885 11.5001 3.83337 9.6346 3.83337 7.33341V4.83341C3.8335 2.60265 5.59054 0.76773 7.8192 0.670915L8.00004 0.666748ZM8.00004 13.1667C11.0517 13.1667 13.7209 14.4792 15.1725 16.4376L13.6375 17.1634C12.4559 15.7634 10.3725 14.8334 8.00004 14.8334C5.62754 14.8334 3.5442 15.7634 2.36254 17.1634L0.828369 16.4367C2.28004 14.4784 4.94837 13.1667 8.00004 13.1667ZM5.5042 4.68675C5.58187 3.36523 6.67624 2.33334 8.00004 2.33341C9.38075 2.33341 10.5 3.4527 10.5 4.83341V7.33341L10.4959 7.48008C10.4178 8.83091 9.27917 9.87445 7.92667 9.83475C6.57418 9.79504 5.49873 8.68649 5.50004 7.33341V4.83341L5.5042 4.68675Z" fill="#2D3A45"/>
</svg>
