<svg width="20" height="20" viewBox="0 0 20 20" fill="none" xmlns="http://www.w3.org/2000/svg">
<path fill-rule="evenodd" clip-rule="evenodd" d="M19.006 6.62359C18.2785 3.24431 15.29 0.831849 11.8333 0.833497C8.95043 0.833053 6.3345 2.52118 5.14718 5.14825C2.17607 6.49214 0.449271 9.63647 0.909454 12.8647C1.36964 16.093 3.90624 18.6296 7.13451 19.0898C10.3628 19.55 13.5071 17.8232 14.851 14.8521C18.0022 13.4313 19.7334 10.0029 19.006 6.62359ZM3.40354 9.0835C4.38602 7.38179 6.20172 6.3335 8.16668 6.3335C11.2042 6.3335 13.6667 8.79593 13.6667 11.8335C13.6667 14.8711 11.2042 17.3335 8.16668 17.3335C6.20172 17.3335 4.38602 16.2852 3.40354 14.5835C2.42106 12.8818 2.42106 10.7852 3.40354 9.0835ZM9.08335 7.25017V8.16683H10.9167V10.0002H7.25001C7.01261 9.99973 6.81416 10.1806 6.79271 10.4171C6.77126 10.6535 6.9339 10.8672 7.16751 10.9095L7.25001 10.9168H9.08335C10.349 10.9168 11.375 11.9428 11.375 13.2085C11.375 14.4742 10.349 15.5002 9.08335 15.5002V16.4168H7.25001V15.5002H5.41668V13.6668H9.08335C9.32075 13.6673 9.5192 13.4863 9.54065 13.2499C9.5621 13.0135 9.39945 12.7998 9.16585 12.7575L9.08335 12.7502H7.25001C5.98436 12.7502 4.95835 11.7242 4.95835 10.4585C4.95835 9.19285 5.98436 8.16683 7.25001 8.16683V7.25017H9.08335ZM7.72301 4.51208C8.7657 3.33682 10.2622 2.66499 11.8333 2.66683C14.1166 2.6671 16.1623 4.07803 16.9737 6.21224C17.7851 8.34646 17.1935 10.7601 15.4872 12.2772C15.6147 10.1814 14.8377 8.13154 13.3531 6.6468C11.8686 5.16205 9.81878 4.38486 7.72301 4.51208Z" fill="white"/>
</svg>
