<svg width="20" height="20" viewBox="0 0 20 20" fill="none" xmlns="http://www.w3.org/2000/svg">
<path fill-rule="evenodd" clip-rule="evenodd" d="M0 10C0 15.523 4.477 20 10 20C15.523 20 20 15.523 20 10C20 4.477 15.523 0 10 0C4.477 0 0 4.477 0 10ZM8.21165 6.39486C8.34169 6.32545 8.49938 6.33319 8.622 6.415H8.621L13.501 9.667C13.6124 9.74116 13.6794 9.86614 13.6794 10C13.6794 10.1339 13.6124 10.2588 13.501 10.333L8.622 13.585C8.49938 13.6668 8.34169 13.6746 8.21165 13.6051C8.0816 13.5357 8.00027 13.4004 8 13.253V6.747C8.00027 6.59959 8.0816 6.46427 8.21165 6.39486Z" fill="#2D3A45"/>
</svg>
