<svg width="72" height="83" viewBox="0 0 72 83" fill="none" xmlns="http://www.w3.org/2000/svg">
<path fill-rule="evenodd" clip-rule="evenodd" d="M56.8334 21.1668C56.8334 9.6609 47.506 0.333496 36.0001 0.333496C24.4941 0.333496 15.1667 9.6609 15.1667 21.1668V33.6668C15.1667 45.1728 24.4941 54.5002 36.0001 54.5002C47.506 54.5002 56.8334 45.1728 56.8334 33.6668V21.1668ZM71.8626 79.1877C64.6042 69.396 51.2584 62.8335 36.0001 62.8335C20.7417 62.8335 7.40006 69.3918 0.141724 79.1835L7.81256 82.8168C13.7209 75.8168 24.1376 71.1668 36.0001 71.1668C47.8626 71.1668 58.2792 75.8168 64.1876 82.8168L71.8626 79.1877Z" fill="white"/>
</svg>
