<svg width="17" height="19" viewBox="0 0 17 19" fill="none" xmlns="http://www.w3.org/2000/svg">
<path fill-rule="evenodd" clip-rule="evenodd" d="M16.5 5.5V17.4102C16.5017 17.6534 16.4068 17.8872 16.2361 18.0603C16.0654 18.2334 15.8329 18.3316 15.5898 18.3333H0.91025C0.407891 18.3333 0.000505901 17.9264 0 17.424V0.909333C0 0.417083 0.411583 0 0.9185 0H10.9972L16.5 5.5ZM14.6667 6.41667H10.0833V1.83333H1.83333V16.5H14.6667V6.41667ZM7.33333 4.58333H4.58333V6.41667H7.33333V4.58333ZM4.58333 8.25H11.9167V10.0833H4.58333V8.25ZM11.9167 11.9167H4.58333V13.75H11.9167V11.9167Z" fill="white"/>
</svg>
