<svg width="20" height="20" viewBox="0 0 20 20" fill="none" xmlns="http://www.w3.org/2000/svg">
<path fill-rule="evenodd" clip-rule="evenodd" d="M10 20C4.477 20 0 15.523 0 10C0 4.477 4.477 0 10 0C15.523 0 20 4.477 20 10C20 15.523 15.523 20 10 20ZM10 18C14.4183 18 18 14.4183 18 10C18 5.58172 14.4183 2 10 2C5.58172 2 2 5.58172 2 10C2 14.4183 5.58172 18 10 18ZM4.392 10.391L6.89 11.17V11.171L6.902 11.163L7.772 14.034C7.885 14.344 8.039 14.4 8.226 14.374C8.40808 14.3498 8.50667 14.2543 8.62353 14.1411C8.62733 14.1374 8.63116 14.1337 8.635 14.13L9.824 12.982L12.375 14.87C12.84 15.127 13.175 14.994 13.291 14.437L14.948 6.617C15.131 5.888 14.811 5.597 14.246 5.827L4.513 9.587C3.849 9.854 3.852 10.226 4.392 10.391Z" fill="#8D9BA8"/>
</svg>
