<svg width="16" height="16" viewBox="0 0 16 16" fill="none" xmlns="http://www.w3.org/2000/svg">
<path fill-rule="evenodd" clip-rule="evenodd" d="M6.8 3.4C6.8 1.52223 5.27777 0 3.4 0C1.52223 0 0 1.52223 0 3.4C0 5.27777 1.52223 6.8 3.4 6.8H6.8V3.4ZM5.2 3.4V5.2H3.4C2.40589 5.2 1.6 4.39411 1.6 3.4C1.6 2.40589 2.40589 1.6 3.4 1.6C4.39411 1.6 5.2 2.40589 5.2 3.4ZM3.4 8.4H6.8V11.8C6.8 13.6778 5.27777 15.2 3.4 15.2C1.52223 15.2 0 13.6778 0 11.8C0 9.92223 1.52223 8.4 3.4 8.4ZM1.6 11.8C1.6 10.8059 2.40589 10 3.4 10H5.2V11.8C5.2 12.7941 4.39411 13.6 3.4 13.6C2.40589 13.6 1.6 12.7941 1.6 11.8ZM11.8 0C13.6778 0 15.2 1.52223 15.2 3.4C15.2 5.27777 13.6778 6.8 11.8 6.8H8.4V3.4C8.4 1.52223 9.92223 0 11.8 0ZM13.6 3.4C13.6 4.39411 12.7941 5.2 11.8 5.2H10V3.4C10 2.40589 10.8059 1.6 11.8 1.6C12.7941 1.6 13.6 2.40589 13.6 3.4ZM8.4 8.4H11.8C13.6778 8.4 15.2 9.92223 15.2 11.8C15.2 13.6778 13.6778 15.2 11.8 15.2C9.92223 15.2 8.4 13.6778 8.4 11.8V8.4ZM10 11.8V10H11.8C12.7941 10 13.6 10.8059 13.6 11.8C13.6 12.7941 12.7941 13.6 11.8 13.6C10.8059 13.6 10 12.7941 10 11.8Z" fill="#2D3A45"/>
</svg>
