<svg width="20" height="20" viewBox="0 0 20 20" fill="none" xmlns="http://www.w3.org/2000/svg">
<path fill-rule="evenodd" clip-rule="evenodd" d="M0 10C0 15.523 4.477 20 10 20C15.523 20 20 15.523 20 10C20 4.477 15.523 0 10 0C4.477 0 0 4.477 0 10ZM17.9754 9.49997C18.2397 13.7122 15.1867 17.4053 11 17.938V12H13L13.5 10H11V8.345C11 7.427 11.044 7.203 11.164 6.977C11.2334 6.84215 11.3431 6.73236 11.478 6.663C11.704 6.542 12.083 6.499 13 6.499H13.501V4.599C12.978 4.524 12.552 4.498 12.223 4.519C11.393 4.572 10.918 4.695 10.536 4.9C10.052 5.15569 9.65611 5.55119 9.4 6.035C9.14 6.524 9 7.009 9 8.346V10H7V12H9V17.938C4.80669 17.4129 1.74511 13.7168 2.00974 9.49904C2.27438 5.28128 5.77394 1.99685 10 2C14.2205 2.00523 17.7111 5.28779 17.9754 9.49997Z" fill="#8D9BA8"/>
</svg>
